<svg xmlns="http://www.w3.org/2000/svg" viewBox="0 0 128 96" role="img" aria-label="Bandeira dos Estados Unidos">
  <rect width="128" height="96" fill="#FFFFFF" rx="8"/>
  <g fill="#B22234">
    <rect y="0" width="128" height="7"/>
    <rect y="14" width="128" height="7"/>
    <rect y="28" width="128" height="7"/>
    <rect y="42" width="128" height="7"/>
    <rect y="56" width="128" height="7"/>
    <rect y="70" width="128" height="7"/>
    <rect y="84" width="128" height="7"/>
  </g>
  <rect width="56" height="49" fill="#3C3B6E"/>
  <g fill="#FFFFFF">
    <circle cx="8" cy="8" r="2"/>
    <circle cx="20" cy="8" r="2"/>
    <circle cx="32" cy="8" r="2"/>
    <circle cx="44" cy="8" r="2"/>
    <circle cx="14" cy="16" r="2"/>
    <circle cx="26" cy="16" r="2"/>
    <circle cx="38" cy="16" r="2"/>
    <circle cx="8" cy="24" r="2"/>
    <circle cx="20" cy="24" r="2"/>
    <circle cx="32" cy="24" r="2"/>
    <circle cx="44" cy="24" r="2"/>
    <circle cx="14" cy="32" r="2"/>
    <circle cx="26" cy="32" r="2"/>
    <circle cx="38" cy="32" r="2"/>
    <circle cx="8" cy="40" r="2"/>
    <circle cx="20" cy="40" r="2"/>
    <circle cx="32" cy="40" r="2"/>
    <circle cx="44" cy="40" r="2"/>
  </g>
</svg>
