<svg width="736" height="740" viewBox="0 0 736 740" fill="none" xmlns="http://www.w3.org/2000/svg">
<path d="M369.479 0C467.489 0 559.582 38.11 628.744 107.67C697.905 176.86 736 268.99 736 367.04C736 569.06 571.417 733.71 369.479 733.71C308.084 733.71 247.799 718.17 194.171 688.94L0 740L51.7789 549.82C19.9719 494.32 2.9588 431.42 2.9588 366.67C2.9588 164.65 167.542 0 369.479 0Z" fill="#FFAC27"/>
<path d="M570.789 166.517C517.132 112.561 445.685 83 369.648 83C212.981 83 85.2955 210.715 85.2955 367.417C85.2955 417.642 98.4945 466.432 123.171 509.482L83 657L233.641 617.394C275.246 640.067 322.017 652.121 369.648 652.121C526.314 652.121 654 524.406 654 367.704C654 291.649 624.446 220.186 570.789 166.517ZM369.648 603.905C327.181 603.905 285.576 592.425 249.135 570.9L240.527 565.734L151.004 589.268L174.819 502.02L169.08 493.123C145.552 455.526 132.927 411.902 132.927 367.417C132.927 237.119 239.092 130.929 369.361 130.929C432.486 130.929 491.882 155.611 536.357 200.383C581.119 245.155 605.508 304.564 605.508 367.704C606.082 498.002 499.916 603.905 369.648 603.905ZM499.342 427.113C492.169 423.669 457.163 406.449 450.85 403.866C444.251 401.57 439.66 400.422 434.782 407.31C429.904 414.485 416.418 430.557 412.401 435.149C408.384 440.028 404.08 440.602 396.906 436.871C389.733 433.427 366.778 425.678 339.806 401.57C318.573 382.628 304.514 359.381 300.21 352.206C296.192 345.031 299.636 341.3 303.366 337.569C306.522 334.412 310.539 329.246 313.982 325.228C317.426 321.21 318.86 318.053 321.156 313.461C323.451 308.582 322.303 304.564 320.582 301.12C318.86 297.676 304.514 262.662 298.775 248.312C293.036 234.536 287.011 236.258 282.707 235.971C278.402 235.971 273.812 235.971 268.934 235.971C264.056 235.971 256.595 237.693 249.996 244.868C243.683 252.043 225.32 269.263 225.32 304.277C225.32 339.291 250.857 373.157 254.3 377.749C257.743 382.628 304.514 454.378 375.673 485.087C392.602 492.549 405.801 496.854 416.131 500.011C433.06 505.464 448.555 504.603 460.893 502.881C474.666 500.872 503.072 485.661 508.811 469.015C514.837 452.369 514.837 438.306 512.828 435.149C510.82 431.992 506.515 430.557 499.342 427.113Z" fill="white"/>
</svg>
